<svg version="1.1" id="Layer_1" xmlns="http://www.w3.org/2000/svg" xmlns:xlink="http://www.w3.org/1999/xlink" x="0px" y="0px"
	 width="100%" viewBox="0 0 819 819" enable-background="new 0 0 819 819" xml:space="preserve">
<path fill="#000000" opacity="1.000000" stroke="none" 
	d="
M463.000000,820.000000 
	C308.666718,820.000000 154.833420,820.000000 1.000103,820.000000 
	C1.000069,547.000122 1.000069,274.000244 1.000034,1.000286 
	C273.999786,1.000191 546.999573,1.000191 819.999512,1.000095 
	C819.999695,273.999725 819.999695,546.999451 819.999878,819.999573 
	C701.166687,820.000000 582.333313,820.000000 463.000000,820.000000 
M649.955200,437.437927 
	C651.929810,422.775635 654.535034,408.164337 655.724976,393.438629 
	C657.341614,373.432831 656.286499,353.513977 649.024048,334.428955 
	C643.869324,320.882904 635.719055,310.239349 620.668701,307.027222 
	C601.168091,302.865326 581.620117,298.922546 562.074280,294.975983 
	C515.981018,285.669128 469.878784,276.406372 423.775513,267.148895 
	C414.250732,265.236298 404.705811,263.423920 393.622314,261.263672 
	C413.467743,285.179565 432.299957,307.874420 451.745300,331.308167 
	C448.282440,331.096558 445.828186,331.101166 443.418701,330.774811 
	C424.461761,328.207245 405.434265,326.044525 386.580353,322.858582 
	C356.087982,317.706024 326.122955,310.336670 297.647034,297.938690 
	C279.056610,289.844696 261.602142,279.883240 248.797913,263.603973 
	C245.933945,259.962738 243.610291,259.669556 239.652283,261.350800 
	C205.738876,275.755951 184.060364,300.858612 174.018311,336.122345 
	C168.700333,354.796967 168.893997,373.914276 169.857986,393.099182 
	C171.385849,423.505676 177.921555,452.547668 192.183502,479.677124 
	C206.224579,506.386505 225.936111,527.794434 251.785645,543.297058 
	C283.437927,562.279663 318.139008,572.600342 354.407288,578.051819 
	C389.707886,583.357788 425.081970,583.664429 460.500122,579.140015 
	C494.163086,574.839844 526.671631,566.612244 557.299255,551.570862 
	C577.657837,541.572632 596.133057,529.110657 611.399292,512.185364 
	C630.615845,490.880310 642.817383,465.919403 649.955200,437.437927 
M124.116432,284.241364 
	C114.625259,250.004807 105.140732,215.766403 95.638863,181.532822 
	C92.812691,171.350632 92.925217,171.102402 103.067215,173.828201 
	C133.035965,181.882721 162.961136,190.099335 192.924332,198.174698 
	C196.022415,199.009674 199.261169,199.322678 203.377686,200.042862 
	C198.010590,162.326569 192.805634,125.749725 187.369919,87.551163 
	C193.651672,90.035934 198.537445,91.559715 203.054703,93.819954 
	C239.534195,112.072693 275.920471,130.511887 312.430298,148.703354 
	C314.832428,149.900223 318.231201,150.393677 320.805176,149.756058 
	C365.922119,138.579742 411.600403,134.557404 457.985382,137.892258 
	C492.704651,140.388367 526.370667,147.324799 558.889893,159.865768 
	C589.951355,171.844574 618.041321,188.713013 642.401855,211.349518 
	C664.462463,231.848831 681.560974,256.031006 692.867432,284.126007 
	C693.404663,285.460999 694.704041,287.189758 695.916443,287.440735 
	C704.894470,289.299164 713.940491,290.829285 723.334961,292.529449 
	C720.453125,278.082367 715.444214,264.480652 708.766541,251.489197 
	C687.297180,209.720367 654.305176,179.179489 614.110291,156.162949 
	C562.643494,126.691795 506.461151,114.079697 447.664703,112.038979 
	C406.912537,110.624557 366.467133,113.531761 326.544891,122.337097 
	C324.945953,122.689774 322.893097,122.393265 321.412537,121.665352 
	C293.292542,107.840073 265.506836,93.295815 237.052689,80.202652 
	C217.679749,71.288223 197.618668,63.694351 177.424881,56.799984 
	C163.848709,52.164940 153.990189,61.879539 156.364182,76.109825 
	C159.347107,93.990211 162.542358,111.835083 165.618103,129.700089 
	C167.501389,140.639008 169.332321,151.586945 171.255127,162.934113 
	C169.940704,162.764664 169.318146,162.738190 168.721573,162.599777 
	C139.932343,155.919708 111.181320,149.067581 82.327492,142.679718 
	C76.629204,141.418213 70.449097,141.184891 64.650146,141.854355 
	C59.032558,142.502884 57.486191,145.651489 58.551666,151.193222 
	C59.332306,155.253479 60.050896,159.432800 61.621052,163.217224 
	C74.814056,195.015228 88.116295,226.768692 101.573105,258.455933 
	C105.582146,267.896179 110.328392,277.021301 114.454315,286.414886 
	C116.435555,290.925659 119.445267,287.963745 122.056786,288.005707 
	C124.113068,288.038757 125.296967,287.318359 124.116432,284.241364 
M303.144501,655.259338 
	C353.164368,668.564453 404.030914,670.566406 455.295715,666.254883 
	C496.809875,662.763367 536.824951,652.991089 574.975525,636.061707 
	C589.580688,629.580750 603.787109,622.354858 615.964844,611.752869 
	C624.444885,604.370117 624.064209,599.016479 614.673096,593.057251 
	C602.980896,585.637817 584.511475,580.007507 570.523987,579.720825 
	C573.134216,581.758057 575.554504,583.494812 577.795227,585.438538 
	C580.056152,587.399841 582.258362,589.457153 584.277649,591.663452 
	C590.653198,598.629517 590.644409,604.393799 582.867310,609.562195 
	C574.209106,615.316284 565.136108,620.877197 555.514771,624.676086 
	C514.646118,640.812988 471.941895,648.714844 428.152130,650.644836 
	C376.756287,652.910034 326.687561,645.392578 277.938782,629.028503 
	C264.827240,624.627197 252.125900,619.285461 240.894470,611.041992 
	C231.998734,604.512817 231.463135,598.466736 239.126862,590.947937 
	C243.238907,586.913696 247.775208,583.311829 252.918198,578.817383 
	C236.020599,581.600098 220.250214,584.402527 206.525269,593.739075 
	C198.966629,598.880920 198.321915,604.696045 205.361328,610.697510 
	C210.653641,615.209534 216.289841,619.440369 222.224152,623.055786 
	C247.110703,638.217651 274.252472,647.872314 303.144501,655.259338 
M102.908165,424.602234 
	C105.660782,434.501556 108.415047,444.400391 111.165092,454.300415 
	C112.091774,457.636475 114.100540,459.097198 117.729660,459.006805 
	C126.052544,458.799530 134.384186,458.962311 142.711899,458.912323 
	C144.093948,458.904022 145.474121,458.579834 146.712357,458.420044 
	C134.004837,406.287720 131.572617,353.895538 135.136765,300.901825 
	C120.847969,300.044617 108.076950,302.919800 96.303772,309.783722 
	C94.790672,310.665863 93.276566,312.983948 93.208084,314.694702 
	C91.736633,351.454590 94.783386,387.841156 102.908165,424.602234 
M690.137329,344.499756 
	C690.618164,382.969666 687.757202,421.094971 677.885376,458.853149 
	C688.015442,458.853149 697.656982,458.880463 707.298218,458.838501 
	C710.710754,458.823639 712.253479,456.632477 712.961609,453.601715 
	C717.331177,434.901215 722.400269,416.330688 725.900085,397.468964 
	C730.192688,374.335358 730.427185,350.813721 730.160828,327.306580 
	C729.949951,308.700165 730.219116,308.570740 712.120911,303.473663 
	C704.549255,301.341187 696.804382,299.686829 690.131958,300.858521 
	C690.131958,315.580109 690.131958,329.539886 690.137329,344.499756 
M69.436829,358.894501 
	C69.436829,347.123749 69.436829,335.352966 69.436829,323.069702 
	C56.160889,328.306183 45.545345,336.171448 37.946476,347.715118 
	C36.295620,350.222992 35.456272,353.579620 35.180847,356.630035 
	C32.168655,389.990936 36.469212,422.403046 50.088352,453.065125 
	C59.122459,473.404449 76.223251,483.999847 98.531433,488.378326 
	C89.189453,467.666473 82.060890,446.997101 78.283325,425.508575 
	C74.462425,403.773468 72.350143,381.738007 69.436829,358.894501 
M787.459045,396.996033 
	C787.606812,383.353882 788.283325,369.690826 787.744446,356.075867 
	C787.265015,343.963013 767.302795,325.856873 753.173584,323.555908 
	C756.124390,380.233948 748.372131,435.156342 725.533569,488.198456 
	C745.706909,484.715576 761.297241,475.479187 770.874146,458.021820 
	C781.094971,439.390411 784.778503,418.749756 787.459045,396.996033 
M147.622009,633.877319 
	C161.011459,644.492432 173.463959,656.502380 189.788956,663.181091 
	C192.301285,652.322205 194.687698,642.300903 196.850891,632.231567 
	C197.082626,631.152954 196.378952,629.301636 195.490784,628.644043 
	C188.131317,623.195435 182.228653,616.645996 178.673981,606.594299 
	C165.480698,613.181152 152.662781,619.580566 139.254044,626.275024 
	C142.221054,628.961914 144.665329,631.175476 147.622009,633.877319 
M668.130310,639.629272 
	C672.980957,635.395447 677.831604,631.161560 683.242249,626.438843 
	C669.801453,619.700073 657.027954,613.295837 645.697021,607.614868 
	C638.319885,616.276672 631.975830,623.725525 625.434082,631.406433 
	C627.678894,641.319641 630.110474,652.057678 632.588440,663.000549 
	C646.159119,657.968506 656.416443,648.329163 668.130310,639.629272 
M653.980164,517.897827 
	C674.477234,520.325439 690.020264,511.386627 702.620850,496.267181 
	C708.705750,488.965973 707.109863,484.769531 697.736328,483.036072 
	C677.283142,479.253571 660.407288,485.572784 647.466553,501.885895 
	C639.881348,511.447784 641.229126,514.999695 653.980164,517.897827 
M127.377121,502.115448 
	C128.989731,503.558655 130.554550,505.059814 132.222610,506.435760 
	C144.656342,516.692139 158.685211,520.674377 174.558151,516.889832 
	C181.687988,515.189880 183.677689,511.605957 179.203461,505.881195 
	C174.085342,499.332550 168.030518,493.046783 161.182495,488.425201 
	C149.841339,480.771332 136.835144,480.243011 123.818375,484.002716 
	C117.325775,485.878021 116.417725,488.651672 120.233009,494.210876 
	C122.092896,496.920898 124.639259,499.159790 127.377121,502.115448 
M541.565552,612.007446 
	C545.962280,606.239929 548.239380,599.705750 547.857117,592.483459 
	C547.376282,583.400146 540.437988,578.930969 531.779846,581.817993 
	C520.565247,585.557495 511.793945,597.082153 511.233276,608.814209 
	C510.677307,620.448364 519.659973,626.756714 529.976562,621.469910 
	C534.117126,619.348083 537.409851,615.571777 541.565552,612.007446 
M280.870087,581.986145 
	C278.937927,584.340942 276.011658,586.411255 275.242462,589.098877 
	C271.541779,602.029358 282.923065,620.121094 296.011505,622.838074 
	C304.073517,624.511658 308.794434,621.404602 310.496826,613.304565 
	C313.238342,600.260376 300.628967,582.517456 287.500427,581.137390 
	C285.597321,580.937317 283.605072,581.585388 280.870087,581.986145 
z"/>
<path fill="#FDFDFD" opacity="1.000000" stroke="none" 
	d="
M649.902466,437.855286 
	C642.817383,465.919403 630.615845,490.880310 611.399292,512.185364 
	C596.133057,529.110657 577.657837,541.572632 557.299255,551.570862 
	C526.671631,566.612244 494.163086,574.839844 460.500122,579.140015 
	C425.081970,583.664429 389.707886,583.357788 354.407288,578.051819 
	C318.139008,572.600342 283.437927,562.279663 251.785645,543.297058 
	C225.936111,527.794434 206.224579,506.386505 192.183502,479.677124 
	C177.921555,452.547668 171.385849,423.505676 169.857986,393.099182 
	C168.893997,373.914276 168.700333,354.796967 174.018311,336.122345 
	C184.060364,300.858612 205.738876,275.755951 239.652283,261.350800 
	C243.610291,259.669556 245.933945,259.962738 248.797913,263.603973 
	C261.602142,279.883240 279.056610,289.844696 297.647034,297.938690 
	C326.122955,310.336670 356.087982,317.706024 386.580353,322.858582 
	C405.434265,326.044525 424.461761,328.207245 443.418701,330.774811 
	C445.828186,331.101166 448.282440,331.096558 451.745300,331.308167 
	C432.299957,307.874420 413.467743,285.179565 393.622314,261.263672 
	C404.705811,263.423920 414.250732,265.236298 423.775513,267.148895 
	C469.878784,276.406372 515.981018,285.669128 562.074280,294.975983 
	C581.620117,298.922546 601.168091,302.865326 620.668701,307.027222 
	C635.719055,310.239349 643.869324,320.882904 649.024048,334.428955 
	C656.286499,353.513977 657.341614,373.432831 655.724976,393.438629 
	C654.535034,408.164337 651.929810,422.775635 649.902466,437.855286 
M523.041138,327.394287 
	C494.532349,339.155304 477.542175,365.748779 479.113892,398.352875 
	C481.030426,438.110260 512.619751,468.532898 551.447815,464.898956 
	C567.916809,463.357635 582.805542,457.212494 593.454773,444.478363 
	C608.504089,426.482849 613.690857,405.184021 610.142700,381.913849 
	C604.232727,343.153503 566.416199,312.402496 523.041138,327.394287 
M254.814667,459.798737 
	C256.365723,460.383636 257.890533,461.053894 259.471802,461.540680 
	C283.838623,469.042023 306.276123,465.319489 324.709442,447.498383 
	C348.317261,424.674652 352.609070,385.005463 335.842621,356.695129 
	C318.546570,327.490570 283.515594,315.440063 254.423203,329.326599 
	C231.522812,340.257568 219.039734,358.945343 215.566284,384.085754 
	C211.709412,412.001160 223.746872,445.804962 254.814667,459.798737 
M465.489716,506.991272 
	C469.046448,505.214508 472.646484,503.518433 476.148224,501.639191 
	C479.949036,499.599457 481.758820,496.318298 480.634064,492.093475 
	C479.455872,487.668121 476.437683,484.808044 471.657013,484.952454 
	C469.085449,485.030090 466.405792,485.729187 464.008209,486.715210 
	C441.635254,495.916168 418.377747,498.777740 394.644928,494.907532 
	C382.976715,493.004761 371.636902,488.951385 360.243225,485.553558 
	C353.633514,483.582428 348.588715,484.810760 346.545471,489.648712 
	C344.348206,494.851349 346.334198,499.309204 352.519379,502.481354 
	C389.194611,521.290588 426.678467,521.510925 465.489716,506.991272 
z"/>
<path fill="#FCFCFC" opacity="1.000000" stroke="none" 
	d="
M124.186813,284.629517 
	C125.296967,287.318359 124.113068,288.038757 122.056786,288.005707 
	C119.445267,287.963745 116.435555,290.925659 114.454315,286.414886 
	C110.328392,277.021301 105.582146,267.896179 101.573105,258.455933 
	C88.116295,226.768692 74.814056,195.015228 61.621052,163.217224 
	C60.050896,159.432800 59.332306,155.253479 58.551666,151.193222 
	C57.486191,145.651489 59.032558,142.502884 64.650146,141.854355 
	C70.449097,141.184891 76.629204,141.418213 82.327492,142.679718 
	C111.181320,149.067581 139.932343,155.919708 168.721573,162.599777 
	C169.318146,162.738190 169.940704,162.764664 171.255127,162.934113 
	C169.332321,151.586945 167.501389,140.639008 165.618103,129.700089 
	C162.542358,111.835083 159.347107,93.990211 156.364182,76.109825 
	C153.990189,61.879539 163.848709,52.164940 177.424881,56.799984 
	C197.618668,63.694351 217.679749,71.288223 237.052689,80.202652 
	C265.506836,93.295815 293.292542,107.840073 321.412537,121.665352 
	C322.893097,122.393265 324.945953,122.689774 326.544891,122.337097 
	C366.467133,113.531761 406.912537,110.624557 447.664703,112.038979 
	C506.461151,114.079697 562.643494,126.691795 614.110291,156.162949 
	C654.305176,179.179489 687.297180,209.720367 708.766541,251.489197 
	C715.444214,264.480652 720.453125,278.082367 723.334961,292.529449 
	C713.940491,290.829285 704.894470,289.299164 695.916443,287.440735 
	C694.704041,287.189758 693.404663,285.460999 692.867432,284.126007 
	C681.560974,256.031006 664.462463,231.848831 642.401855,211.349518 
	C618.041321,188.713013 589.951355,171.844574 558.889893,159.865768 
	C526.370667,147.324799 492.704651,140.388367 457.985382,137.892258 
	C411.600403,134.557404 365.922119,138.579742 320.805176,149.756058 
	C318.231201,150.393677 314.832428,149.900223 312.430298,148.703354 
	C275.920471,130.511887 239.534195,112.072693 203.054703,93.819954 
	C198.537445,91.559715 193.651672,90.035934 187.369919,87.551163 
	C192.805634,125.749725 198.010590,162.326569 203.377686,200.042862 
	C199.261169,199.322678 196.022415,199.009674 192.924332,198.174698 
	C162.961136,190.099335 133.035965,181.882721 103.067215,173.828201 
	C92.925217,171.102402 92.812691,171.350632 95.638863,181.532822 
	C105.140732,215.766403 114.625259,250.004807 124.186813,284.629517 
z"/>
<path fill="#FBFBFB" opacity="1.000000" stroke="none" 
	d="
M302.742096,655.181030 
	C274.252472,647.872314 247.110703,638.217651 222.224152,623.055786 
	C216.289841,619.440369 210.653641,615.209534 205.361328,610.697510 
	C198.321915,604.696045 198.966629,598.880920 206.525269,593.739075 
	C220.250214,584.402527 236.020599,581.600098 252.918198,578.817383 
	C247.775208,583.311829 243.238907,586.913696 239.126862,590.947937 
	C231.463135,598.466736 231.998734,604.512817 240.894470,611.041992 
	C252.125900,619.285461 264.827240,624.627197 277.938782,629.028503 
	C326.687561,645.392578 376.756287,652.910034 428.152130,650.644836 
	C471.941895,648.714844 514.646118,640.812988 555.514771,624.676086 
	C565.136108,620.877197 574.209106,615.316284 582.867310,609.562195 
	C590.644409,604.393799 590.653198,598.629517 584.277649,591.663452 
	C582.258362,589.457153 580.056152,587.399841 577.795227,585.438538 
	C575.554504,583.494812 573.134216,581.758057 570.523987,579.720825 
	C584.511475,580.007507 602.980896,585.637817 614.673096,593.057251 
	C624.064209,599.016479 624.444885,604.370117 615.964844,611.752869 
	C603.787109,622.354858 589.580688,629.580750 574.975525,636.061707 
	C536.824951,652.991089 496.809875,662.763367 455.295715,666.254883 
	C404.030914,670.566406 353.164368,668.564453 302.742096,655.181030 
z"/>
<path fill="#FCFCFC" opacity="1.000000" stroke="none" 
	d="
M102.821877,424.195374 
	C94.783386,387.841156 91.736633,351.454590 93.208084,314.694702 
	C93.276566,312.983948 94.790672,310.665863 96.303772,309.783722 
	C108.076950,302.919800 120.847969,300.044617 135.136765,300.901825 
	C131.572617,353.895538 134.004837,406.287720 146.712357,458.420044 
	C145.474121,458.579834 144.093948,458.904022 142.711899,458.912323 
	C134.384186,458.962311 126.052544,458.799530 117.729660,459.006805 
	C114.100540,459.097198 112.091774,457.636475 111.165092,454.300415 
	C108.415047,444.400391 105.660782,434.501556 102.821877,424.195374 
z"/>
<path fill="#FCFCFD" opacity="1.000000" stroke="none" 
	d="
M690.134644,343.999725 
	C690.131958,329.539886 690.131958,315.580109 690.131958,300.858521 
	C696.804382,299.686829 704.549255,301.341187 712.120911,303.473663 
	C730.219116,308.570740 729.949951,308.700165 730.160828,327.306580 
	C730.427185,350.813721 730.192688,374.335358 725.900085,397.468964 
	C722.400269,416.330688 717.331177,434.901215 712.961609,453.601715 
	C712.253479,456.632477 710.710754,458.823639 707.298218,458.838501 
	C697.656982,458.880463 688.015442,458.853149 677.885376,458.853149 
	C687.757202,421.094971 690.618164,382.969666 690.134644,343.999725 
z"/>
<path fill="#FCFCFC" opacity="1.000000" stroke="none" 
	d="
M69.463120,359.364319 
	C72.350143,381.738007 74.462425,403.773468 78.283325,425.508575 
	C82.060890,446.997101 89.189453,467.666473 98.531433,488.378326 
	C76.223251,483.999847 59.122459,473.404449 50.088352,453.065125 
	C36.469212,422.403046 32.168655,389.990936 35.180847,356.630035 
	C35.456272,353.579620 36.295620,350.222992 37.946476,347.715118 
	C45.545345,336.171448 56.160889,328.306183 69.436829,323.069702 
	C69.436829,335.352966 69.436829,347.123749 69.463120,359.364319 
z"/>
<path fill="#FCFCFC" opacity="1.000000" stroke="none" 
	d="
M787.394409,397.449646 
	C784.778503,418.749756 781.094971,439.390411 770.874146,458.021820 
	C761.297241,475.479187 745.706909,484.715576 725.533569,488.198456 
	C748.372131,435.156342 756.124390,380.233948 753.170166,323.555359 
	C767.302795,325.856873 787.265015,343.963013 787.744446,356.075867 
	C788.283325,369.690826 787.606812,383.353882 787.394409,397.449646 
z"/>
<path fill="#FBFBFB" opacity="1.000000" stroke="none" 
	d="
M147.365814,633.633179 
	C144.665329,631.175476 142.221054,628.961914 139.254044,626.275024 
	C152.662781,619.580566 165.480698,613.181152 178.673981,606.594299 
	C182.228653,616.645996 188.131317,623.195435 195.490784,628.644043 
	C196.378952,629.301636 197.082626,631.152954 196.850891,632.231567 
	C194.687698,642.300903 192.301285,652.322205 189.788956,663.181091 
	C173.463959,656.502380 161.011459,644.492432 147.365814,633.633179 
z"/>
<path fill="#FCFBFC" opacity="1.000000" stroke="none" 
	d="
M667.853027,639.852539 
	C656.416443,648.329163 646.159119,657.968506 632.588440,663.000549 
	C630.110474,652.057678 627.678894,641.319641 625.434082,631.406433 
	C631.975830,623.725525 638.319885,616.276672 645.697021,607.614868 
	C657.027954,613.295837 669.801453,619.700073 683.242249,626.438843 
	C677.831604,631.161560 672.980957,635.395447 667.853027,639.852539 
z"/>
<path fill="#FBFBFB" opacity="1.000000" stroke="none" 
	d="
M653.539551,517.840210 
	C641.229126,514.999695 639.881348,511.447784 647.466553,501.885895 
	C660.407288,485.572784 677.283142,479.253571 697.736328,483.036072 
	C707.109863,484.769531 708.705750,488.965973 702.620850,496.267181 
	C690.020264,511.386627 674.477234,520.325439 653.539551,517.840210 
z"/>
<path fill="#FCFBFC" opacity="1.000000" stroke="none" 
	d="
M127.126007,501.863678 
	C124.639259,499.159790 122.092896,496.920898 120.233009,494.210876 
	C116.417725,488.651672 117.325775,485.878021 123.818375,484.002716 
	C136.835144,480.243011 149.841339,480.771332 161.182495,488.425201 
	C168.030518,493.046783 174.085342,499.332550 179.203461,505.881195 
	C183.677689,511.605957 181.687988,515.189880 174.558151,516.889832 
	C158.685211,520.674377 144.656342,516.692139 132.222610,506.435760 
	C130.554550,505.059814 128.989731,503.558655 127.126007,501.863678 
z"/>
<path fill="#FBFBFC" opacity="1.000000" stroke="none" 
	d="
M541.327026,612.278015 
	C537.409851,615.571777 534.117126,619.348083 529.976562,621.469910 
	C519.659973,626.756714 510.677307,620.448364 511.233276,608.814209 
	C511.793945,597.082153 520.565247,585.557495 531.779846,581.817993 
	C540.437988,578.930969 547.376282,583.400146 547.857117,592.483459 
	C548.239380,599.705750 545.962280,606.239929 541.327026,612.278015 
z"/>
<path fill="#FCFBFC" opacity="1.000000" stroke="none" 
	d="
M281.262085,581.913574 
	C283.605072,581.585388 285.597321,580.937317 287.500427,581.137390 
	C300.628967,582.517456 313.238342,600.260376 310.496826,613.304565 
	C308.794434,621.404602 304.073517,624.511658 296.011505,622.838074 
	C282.923065,620.121094 271.541779,602.029358 275.242462,589.098877 
	C276.011658,586.411255 278.937927,584.340942 281.262085,581.913574 
z"/>
<path fill="#010101" opacity="1.000000" stroke="none" 
	d="
M523.409180,327.249390 
	C566.416199,312.402496 604.232727,343.153503 610.142700,381.913849 
	C613.690857,405.184021 608.504089,426.482849 593.454773,444.478363 
	C582.805542,457.212494 567.916809,463.357635 551.447815,464.898956 
	C512.619751,468.532898 481.030426,438.110260 479.113892,398.352875 
	C477.542175,365.748779 494.532349,339.155304 523.409180,327.249390 
z"/>
<path fill="#010101" opacity="1.000000" stroke="none" 
	d="
M254.483490,459.611328 
	C223.746872,445.804962 211.709412,412.001160 215.566284,384.085754 
	C219.039734,358.945343 231.522812,340.257568 254.423203,329.326599 
	C283.515594,315.440063 318.546570,327.490570 335.842621,356.695129 
	C352.609070,385.005463 348.317261,424.674652 324.709442,447.498383 
	C306.276123,465.319489 283.838623,469.042023 259.471802,461.540680 
	C257.890533,461.053894 256.365723,460.383636 254.483490,459.611328 
z"/>
<path fill="#040404" opacity="1.000000" stroke="none" 
	d="
M465.129456,507.123291 
	C426.678467,521.510925 389.194611,521.290588 352.519379,502.481354 
	C346.334198,499.309204 344.348206,494.851349 346.545471,489.648712 
	C348.588715,484.810760 353.633514,483.582428 360.243225,485.553558 
	C371.636902,488.951385 382.976715,493.004761 394.644928,494.907532 
	C418.377747,498.777740 441.635254,495.916168 464.008209,486.715210 
	C466.405792,485.729187 469.085449,485.030090 471.657013,484.952454 
	C476.437683,484.808044 479.455872,487.668121 480.634064,492.093475 
	C481.758820,496.318298 479.949036,499.599457 476.148224,501.639191 
	C472.646484,503.518433 469.046448,505.214508 465.129456,507.123291 
z"/>
</svg>